<svg id="Capa_1" data-name="Capa 1" xmlns="http://www.w3.org/2000/svg" xmlns:xlink="http://www.w3.org/1999/xlink" viewBox="0 0 130 28"><defs><style>.cls-1{fill:none;}.cls-2{clip-path:url(#clip-path);}.cls-3{fill:url(#Degradado_sin_nombre_39);}.cls-4{clip-path:url(#clip-path-2);}.cls-5{fill:url(#Degradado_sin_nombre_36);}.cls-6{clip-path:url(#clip-path-3);}.cls-7{fill:url(#Degradado_sin_nombre_38);}.cls-8{font-size:9px;fill:#3c3c3b;font-family:Montserrat-Black, Montserrat;}.cls-9{letter-spacing:-0.01em;}.cls-10{fill:#fff;}</style><clipPath id="clip-path"><path class="cls-1" d="M42.51,4.36h-.58a11.48,11.48,0,0,1,0,18.26l1,0h0l.93,0a11.48,11.48,0,0,0,0-18.26H42.51Z"/></clipPath><radialGradient id="Degradado_sin_nombre_39" cx="-169.09" cy="405.89" r="1.2" gradientTransform="matrix(27.4, 0, 0, -27.4, 4662.26, 11139.62)" gradientUnits="userSpaceOnUse"><stop offset="0" stop-color="#f6e93d"/><stop offset="0.07" stop-color="#f5d544"/><stop offset="0.2" stop-color="#f1a155"/><stop offset="0.39" stop-color="#ea4f70"/><stop offset="0.47" stop-color="#e82e7b"/><stop offset="0.66" stop-color="#e62e7b"/><stop offset="0.74" stop-color="#df307d"/><stop offset="0.79" stop-color="#d3327f"/><stop offset="0.84" stop-color="#c13582"/><stop offset="0.88" stop-color="#aa3987"/><stop offset="0.92" stop-color="#8e3e8c"/><stop offset="0.95" stop-color="#6d4492"/><stop offset="0.98" stop-color="#474b99"/><stop offset="1" stop-color="#2e4f9e"/></radialGradient><clipPath id="clip-path-2"><path class="cls-1" d="M44.46,4.36h-.58a11.48,11.48,0,0,1,0,18.26l69.72,0a9.15,9.15,0,1,0,0-18.3Z"/></clipPath><linearGradient id="Degradado_sin_nombre_36" x1="-175.98" y1="404.74" x2="-174.79" y2="404.74" gradientTransform="matrix(67.58, 0, 0, -67.58, 11936.71, 27365.44)" gradientUnits="userSpaceOnUse"><stop offset="0" stop-color="#fff"/><stop offset="0.52" stop-color="#fdfdfd"/><stop offset="0.78" stop-color="#f6f5f5"/><stop offset="0.98" stop-color="#e9e8e8"/><stop offset="1" stop-color="#e7e6e6"/></linearGradient><clipPath id="clip-path-3"><path class="cls-1" d="M25.12,4.37h-7.8a9.13,9.13,0,0,0,0,18.26H35.11a9.13,9.13,0,0,0,0-18.26Z"/></clipPath><radialGradient id="Degradado_sin_nombre_38" cx="-171.55" cy="408.65" r="1.2" gradientTransform="matrix(26.18, 0, 0, -26.18, 4502.08, 10714.55)" gradientUnits="userSpaceOnUse"><stop offset="0" stop-color="#f6e93d"/><stop offset="0.06" stop-color="#f5d544"/><stop offset="0.19" stop-color="#f1a155"/><stop offset="0.38" stop-color="#ea4f70"/><stop offset="0.45" stop-color="#e82e7b"/><stop offset="0.52" stop-color="#e32f7c"/><stop offset="0.6" stop-color="#d6317e"/><stop offset="0.69" stop-color="#c03583"/><stop offset="0.78" stop-color="#a13b88"/><stop offset="0.87" stop-color="#794290"/><stop offset="0.96" stop-color="#494a99"/><stop offset="1" stop-color="#2e4f9e"/></radialGradient></defs><title>Boton Instagram</title><g class="cls-2"><rect class="cls-3" x="36.09" y="7.51" width="19.65" height="12" transform="translate(22.11 55.04) rotate(-76.57)"/></g><g class="cls-4"><rect class="cls-5" x="43.88" y="4.36" width="78.87" height="18.3"/></g><g class="cls-6"><rect class="cls-7" x="6.65" y="-6.96" width="39.14" height="40.92" transform="translate(-1.25 24.23) rotate(-48.58)"/></g><text class="cls-8" transform="translate(51 17.3)">TRO<tspan class="cls-9" x="20.22" y="0">P</tspan><tspan x="26.82" y="0">IGASHN</tspan></text><path class="cls-10" d="M27.87,18.89H23.77a3.3,3.3,0,0,1-3.3-3.29V12a3.3,3.3,0,0,1,3.3-3.29h4.09A3.3,3.3,0,0,1,31.16,12V15.6a3.3,3.3,0,0,1-3.29,3.29M23.77,9.43A2.57,2.57,0,0,0,21.21,12V15.6a2.57,2.57,0,0,0,2.56,2.56h4.09a2.56,2.56,0,0,0,2.56-2.56V12a2.57,2.57,0,0,0-2.56-2.56Z"/><path class="cls-10" d="M25.82,16.73a2.93,2.93,0,1,1,2.93-2.93,2.94,2.94,0,0,1-2.93,2.93m0-5.14a2.2,2.2,0,1,0,2.2,2.2,2.2,2.2,0,0,0-2.2-2.2"/><path class="cls-10" d="M29.32,10.95a.61.61,0,1,1-.61-.61.61.61,0,0,1,.61.61"/></svg>