<svg id="Capa_1" data-name="Capa 1" xmlns="http://www.w3.org/2000/svg" xmlns:xlink="http://www.w3.org/1999/xlink" viewBox="0 0 130 28"><defs><style>.cls-1{fill:none;}.cls-2{clip-path:url(#clip-path);}.cls-3{fill:url(#Degradado_sin_nombre_35);}.cls-4{clip-path:url(#clip-path-2);}.cls-5{fill:url(#Degradado_sin_nombre_36);}.cls-6{clip-path:url(#clip-path-3);}.cls-7{fill:url(#Degradado_sin_nombre_35-2);}.cls-8{fill:#fff;}.cls-9{font-size:9px;fill:#3c3c3b;font-family:Montserrat-Black, Montserrat;}.cls-10{letter-spacing:-0.01em;}</style><clipPath id="clip-path"><path class="cls-1" d="M42.94,5.42h-.58a11.47,11.47,0,0,1,0,18.25l1,0h0l.93,0a11.47,11.47,0,0,0,0-18.25H42.94Z"/></clipPath><linearGradient id="Degradado_sin_nombre_35" x1="-187.28" y1="441.39" x2="-186.08" y2="441.39" gradientTransform="matrix(5.4, 0, 0, -5.4, 1054.49, 2400.08)" gradientUnits="userSpaceOnUse"><stop offset="0" stop-color="#395499"/><stop offset="0.04" stop-color="#395499"/><stop offset="0.47" stop-color="#3b579c"/><stop offset="0.75" stop-color="#415fa4"/><stop offset="0.99" stop-color="#4c6db3"/><stop offset="1" stop-color="#4c6db3"/></linearGradient><clipPath id="clip-path-2"><path class="cls-1" d="M44.88,5.42H44.3a11.47,11.47,0,0,1,0,18.25l69.68,0a9.14,9.14,0,1,0,0-18.28Z"/></clipPath><linearGradient id="Degradado_sin_nombre_36" x1="-175.98" y1="405.15" x2="-174.78" y2="405.15" gradientTransform="matrix(67.58, 0, 0, -67.58, 11936.66, 27394.25)" gradientUnits="userSpaceOnUse"><stop offset="0" stop-color="#fff"/><stop offset="0.52" stop-color="#fdfdfd"/><stop offset="0.78" stop-color="#f6f5f5"/><stop offset="0.98" stop-color="#e9e8e8"/><stop offset="1" stop-color="#e7e6e6"/></linearGradient><clipPath id="clip-path-3"><path class="cls-1" d="M25.56,5.42H17.76a9.13,9.13,0,1,0,0,18.25H35.54a9.13,9.13,0,0,0,0-18.25Z"/></clipPath><linearGradient id="Degradado_sin_nombre_35-2" x1="-177.38" y1="409.06" x2="-176.19" y2="409.06" gradientTransform="matrix(30.15, 0, 0, -30.15, 5356.8, 12347.9)" xlink:href="#Degradado_sin_nombre_35"/></defs><title>Boton Facebook</title><g class="cls-2"><rect class="cls-3" x="42.36" y="5.42" width="7.97" height="18.29"/></g><g class="cls-4"><rect class="cls-5" x="44.3" y="5.42" width="78.82" height="18.29"/></g><g class="cls-6"><rect class="cls-7" x="7.44" y="5.42" width="38.43" height="18.25"/></g><path class="cls-8" d="M26.84,20V15.15h1.64l.24-1.9H26.84V12c0-.55.15-.93.94-.93h1V9.4a13.94,13.94,0,0,0-1.47-.07,2.3,2.3,0,0,0-2.45,2.52v1.4H23.23v1.9h1.64V20Z"/><text class="cls-9" transform="translate(50.38 17.68)">TRO<tspan class="cls-10" x="20.22" y="0">P</tspan><tspan x="26.82" y="0">IGAS HN</tspan></text></svg>