<svg id="Capa_1" data-name="Capa 1" xmlns="http://www.w3.org/2000/svg" viewBox="0 0 90 90"><defs><style>.cls-1{fill:#eb6431;}.cls-2{fill:#f6f4f1;}.cls-3{fill:#3d3d3b;}.cls-4{fill:#fff;}.cls-5{fill:#e42d26;}.cls-6{fill:#c29219;}.cls-7{fill:#e52c24;}</style></defs><title>Logo Granel</title><path class="cls-1" d="M17.26,51h-5.1v5h.93v-.06a6.41,6.41,0,0,1,4.16-5"/><path class="cls-2" d="M60.39,56c.89-2.81,3.09-5.53,6.26-5.7,3.49-.51,6.74,2.18,7.5,5.53,2.31,0,4.61,0,6.92,0,0-1,0-2,0-2.91l-1.27-.08c0-2.76.05-5.5-.05-8.26l-2.66-1.22-1.85-.88L75,42.4c-1.25-.67-1.22-2.37-1.69-3.57-.5-2-1.31-4-1.81-6a12.38,12.38,0,0,1-.39-3.95c-3.61-.05-7.2,0-10.78,0h-.05v4.45l0,0c0,5,0,9.92,0,14.87,0,.94.09,6.9.1,7.84"/><path class="cls-3" d="M67.23,51A6.05,6.05,0,1,0,73.28,57,6.05,6.05,0,0,0,67.23,51m1.22,7.38a1.81,1.81,0,0,1-3-1.33,1.86,1.86,0,0,1,0-.33,1.81,1.81,0,0,1,3.55,0A1.86,1.86,0,0,1,69,57a1.8,1.8,0,0,1-.59,1.33"/><path class="cls-3" d="M19.45,51h0a6.05,6.05,0,0,0-5.95,5,6.16,6.16,0,0,0-.09,1A6.05,6.05,0,1,0,19.45,51m1.21,7.38a1.81,1.81,0,0,1-3-1.33,1.84,1.84,0,0,1,0-.33,1.78,1.78,0,0,1,.29-.7,1.81,1.81,0,0,1,3.26.7,1.83,1.83,0,0,1,0,.33,1.8,1.8,0,0,1-.59,1.33"/><path class="cls-1" d="M60.25,43.46c0,5.9-.06,1.6,0,7.5H21.6a6.41,6.41,0,0,1,4.16,5V56H60.33c.89-2.81,3.09-5.53,6.26-5.7,3.5-.51,6.74,2.18,7.5,5.52,2.31,0,4.61,0,6.92,0,0-1,0-2,0-2.91l-1.27-.08c0-2.76.09-3.3,0-6.06"/><path class="cls-2" d="M49.4,28.08h6.77s3.15,1.55,2.85,10.2S56.43,49,56.43,49H13.34s-2.94-.73-2.94-10.2,2.26-10.72,2.26-10.72H49.4Z"/><path class="cls-4" d="M63.08,40.4c0-2.69-.08-5.37,0-8.06,1.8,0,3.62,0,5.42.05.71,2.66,1.57,5.3,2.28,8-2.59.05-5.15,0-7.73,0"/><path class="cls-5" d="M42.59,37.88v-.39h1.9a.2.2,0,0,0,.23-.19c0-.13-.07-.21-.22-.21-.48,0-1,0-1.44,0a.67.67,0,0,1-.37-.13,1,1,0,0,1,0-.92.46.46,0,0,1,.36-.16h2.3c.09,0,.13,0,.12.12s0,.17,0,.27H43.61a.34.34,0,0,0-.22.05.26.26,0,0,0-.05.22.24.24,0,0,0,.18.12H45a.4.4,0,0,1,.46.45v.34a.39.39,0,0,1-.4.42H42.59Z"/><path class="cls-5" d="M39.39,35.82h.25c.73,0,1.46,0,2.19,0a.47.47,0,0,1,.54.54c0,.33,0,.65,0,1a.45.45,0,0,1-.51.51H39.94a.44.44,0,0,1-.49-.5c0-.11,0-.22,0-.32a.37.37,0,0,1,.36-.37h1.11c.08,0,.11,0,.11.12,0,.38,0,.3-.28.3H40.2c-.15,0-.21.06-.21.18s.07.18.21.18h1.11a.31.31,0,0,0,.36-.32,6.17,6.17,0,0,0,0-.7c0-.17-.13-.27-.34-.27H39.67c-.32,0-.31.07-.29-.35"/><path class="cls-5" d="M39.11,35.82v.33H37.19c-.29,0-.39.1-.38.39s0,.35,0,.53a.33.33,0,0,0,.38.37h1.1c.13,0,.22-.08.22-.18s-.08-.19-.22-.19h-.84c0-.12,0-.23,0-.33a.12.12,0,0,1,.09-.08c.38,0,.76,0,1.14,0A.36.36,0,0,1,39,37c0,.12,0,.23,0,.35a.43.43,0,0,1-.43.45h-2a.43.43,0,0,1-.46-.45c0-.38,0-.75,0-1.13a.41.41,0,0,1,.41-.44h2.56"/><path class="cls-5" d="M27.59,37l.16,0a.35.35,0,0,1,.3.39c0,.4,0,.4-.39.4s-.26,0-.26-.26,0-.37-.33-.39-.68,0-1,0c0,0-.08.06-.08.1s0,.29,0,.44,0,.13-.11.12h-.4c-.08,0-.12,0-.12-.11q0-.87,0-1.75c0-.08,0-.11.11-.11h1.88a1.54,1.54,0,0,1,.36.06.56.56,0,0,1,.38.81.4.4,0,0,1-.29.22l-.17,0v0M26,36.84h1.22l.07,0a.24.24,0,0,0,.18-.22c0-.25-.06-.38-.32-.4h-1c-.07,0-.11,0-.11.1s0,.36,0,.55"/><path class="cls-5" d="M30,37.88c-.33,0-.63-.06-.93-.11a.52.52,0,0,1-.49-.53,4.17,4.17,0,0,1,0-.77A.56.56,0,0,1,29,36a4.48,4.48,0,0,1,2,0,.56.56,0,0,1,.46.58,6.18,6.18,0,0,1,0,.66.53.53,0,0,1-.46.56c-.34.07-.7.09-1,.13M30,36.16l-.48,0-.1,0a.28.28,0,0,0-.26.3c0,.23,0,.46,0,.69a.28.28,0,0,0,.24.31,3,3,0,0,0,1.11,0,.29.29,0,0,0,.24-.28c0-.24,0-.48,0-.72a.27.27,0,0,0-.25-.28l-.49,0"/><path class="cls-5" d="M32.5,37.2v.64H32s-.07-.06-.07-.1c0-.59,0-1.17,0-1.76a.14.14,0,0,1,.1-.1c.67,0,1.35,0,2,0s.64.5.54.88a.45.45,0,0,1-.45.34c-.4,0-.81,0-1.21.06H32.5m.6-.31h.5a.29.29,0,0,0,.31-.32c0-.24-.06-.35-.29-.36s-.68,0-1,0c-.08,0-.1,0-.1.11s0,.32,0,.48,0,.12.12.12h.48"/><path class="cls-6" d="M35.78,35.32a1.77,1.77,0,0,0,.78-.46,1.7,1.7,0,0,0,.47-.92c0-.08,0-.13.12-.13h2.14l.06,0a1.51,1.51,0,0,1-.12.24,2,2,0,0,1-.81.6,7.8,7.8,0,0,1-2.48.65h-.16"/><path class="cls-6" d="M31.3,33.82h2.15c.1,0,.16,0,.18.14a1.66,1.66,0,0,0,1.17,1.35l0,0v0c-.48-.09-1-.16-1.45-.28a4.38,4.38,0,0,1-1.65-.7,2.9,2.9,0,0,1-.4-.44.39.39,0,0,1,0-.12"/><path class="cls-6" d="M31.3,33.49A1,1,0,0,1,31.7,33a3.87,3.87,0,0,1,1.18-.58,8.12,8.12,0,0,1,2-.4,1.77,1.77,0,0,0-.93.64,1.51,1.51,0,0,0-.31.72c0,.09,0,.16-.15.16H31.42l-.12,0"/><path class="cls-6" d="M35.75,32c1.62.06,3.24.77,3.58,1.51H37.22c-.12,0-.17,0-.2-.17A1.72,1.72,0,0,0,35.75,32"/><path class="cls-5" d="M23.34,37.84v-.66c0-.28,0-.57,0-.85,0-.1,0-.14-.14-.14h-.76l0,0c0-.28,0-.28.25-.29h2.08c.28,0,.29,0,.23.32h-.77c-.21,0-.21,0-.21.22,0,.43,0,.85,0,1.27,0,.12,0,.17-.15.16s-.32,0-.5,0"/><path class="cls-7" d="M35.48,32.21a1.42,1.42,0,0,1,1.3,1.31h-1.3Z"/><path class="cls-7" d="M35.19,32.21c0,.42,0,.83,0,1.24a.12.12,0,0,1-.08.09H33.88a1.42,1.42,0,0,1,1.31-1.31"/><path class="cls-7" d="M35.47,35.11c0-.42,0-.83,0-1.24a.11.11,0,0,1,.08-.08h1.23a1.41,1.41,0,0,1-1.31,1.32"/><path class="cls-5" d="M35,36.86c0-.28,0-.56,0-.84,0-.12,0-.15.15-.15h.4c.07,0,.1,0,.1.1,0,.59,0,1.18,0,1.77,0,0-.06.09-.09.09h-.44c-.09,0-.12,0-.12-.12C35,37.43,35,37.15,35,36.86Z"/><path class="cls-7" d="M33.87,33.8h1.18c.08,0,.13,0,.13.1,0,.39,0,.78,0,1.17a.14.14,0,0,1,0,0,1.4,1.4,0,0,1-1.29-1.31"/><path class="cls-1" d="M58.8,42.13a12.55,12.55,0,0,1-.43,2.71C57.62,48.12,56.22,49,56.22,49H13.5s-2.09-.36-2.73-4.46a13.72,13.72,0,0,1-.18-2.37"/><path class="cls-3" d="M24.84,38.3h.37a1.05,1.05,0,0,1,.25,0,.48.48,0,0,1,.19.1.71.71,0,0,1,.22.57,1.11,1.11,0,0,1,0,.23.69.69,0,0,1-.07.19.59.59,0,0,1-.12.15.48.48,0,0,1-.12.08l-.15,0h-.55a.22.22,0,0,1-.12,0,.11.11,0,0,1-.05-.07.45.45,0,0,1,0-.11v-1a.15.15,0,0,1,.18-.18m.11.23v1h.33l.08,0,.07,0a.52.52,0,0,0,.14-.42.61.61,0,0,0-.06-.31.28.28,0,0,0-.15-.13.8.8,0,0,0-.22,0Z"/><path class="cls-3" d="M27.06,38.52h-.64v.35H27a.15.15,0,0,1,.1,0,.1.1,0,0,1,0,.08.1.1,0,0,1,0,.08.14.14,0,0,1-.1,0h-.59v.4h.67a.14.14,0,0,1,.1,0,.11.11,0,0,1,0,.08.11.11,0,0,1,0,.08.15.15,0,0,1-.1,0H26.3a.18.18,0,0,1-.13,0,.18.18,0,0,1,0-.13V38.47a.25.25,0,0,1,0-.1.11.11,0,0,1,.06-.06l.1,0h.76a.15.15,0,0,1,.1,0,.1.1,0,0,1,0,.08.1.1,0,0,1,0,.08.15.15,0,0,1-.1,0"/><path class="cls-3" d="M28.22,38.45v.4h.62v-.4a.18.18,0,0,1,0-.13.13.13,0,0,1,.1,0,.14.14,0,0,1,.1,0,.19.19,0,0,1,0,.13v1.11a.19.19,0,0,1,0,.13.14.14,0,0,1-.1,0,.13.13,0,0,1-.1,0,.19.19,0,0,1,0-.13v-.47h-.62v.47a.18.18,0,0,1,0,.13.14.14,0,0,1-.1,0,.13.13,0,0,1-.1,0,.19.19,0,0,1,0-.13V38.45a.19.19,0,0,1,0-.13.13.13,0,0,1,.1,0,.14.14,0,0,1,.1,0,.19.19,0,0,1,0,.13"/><path class="cls-3" d="M30.05,38.27a.76.76,0,0,1,.38.09.58.58,0,0,1,.24.25.86.86,0,0,1,.08.38.93.93,0,0,1,0,.3.64.64,0,0,1-.13.23.58.58,0,0,1-.22.15.78.78,0,0,1-.3.05.79.79,0,0,1-.3-.05.57.57,0,0,1-.22-.15.62.62,0,0,1-.13-.23.94.94,0,0,1,0-.29.89.89,0,0,1,0-.3.63.63,0,0,1,.13-.23.57.57,0,0,1,.22-.15.79.79,0,0,1,.29-.05m.41.73a.67.67,0,0,0-.05-.27.37.37,0,0,0-.14-.17.41.41,0,0,0-.37,0,.35.35,0,0,0-.12.09.45.45,0,0,0-.08.16.71.71,0,0,0,0,.22.72.72,0,0,0,0,.22.45.45,0,0,0,.09.16.34.34,0,0,0,.13.1.38.38,0,0,0,.16,0,.39.39,0,0,0,.2-.05.38.38,0,0,0,.15-.17.66.66,0,0,0,.05-.28"/><path class="cls-3" d="M31.37,38.45l.55.83v-.84a.18.18,0,0,1,0-.12.12.12,0,0,1,.1,0,.12.12,0,0,1,.1,0,.18.18,0,0,1,0,.12v1.11q0,.19-.15.19H32l-.06,0-.05-.06,0-.07-.54-.82v.83a.17.17,0,0,1,0,.12.12.12,0,0,1-.1,0,.12.12,0,0,1-.1,0,.18.18,0,0,1,0-.12V38.48a.29.29,0,0,1,0-.11.15.15,0,0,1,.06-.07.17.17,0,0,1,.09,0h.07l0,0,0,.05,0,.07"/><path class="cls-3" d="M32.67,38.3H33a1.05,1.05,0,0,1,.25,0,.48.48,0,0,1,.19.1.71.71,0,0,1,.22.57,1.11,1.11,0,0,1,0,.23.69.69,0,0,1-.07.19.57.57,0,0,1-.12.15.48.48,0,0,1-.12.08l-.15,0h-.55a.22.22,0,0,1-.12,0,.11.11,0,0,1-.05-.07.45.45,0,0,1,0-.11v-1a.15.15,0,0,1,.18-.18m.11.23v1h.33l.08,0,.07,0a.52.52,0,0,0,.14-.42.61.61,0,0,0-.06-.31.28.28,0,0,0-.15-.13.8.8,0,0,0-.22,0Z"/><path class="cls-3" d="M34,39.13v-.68a.19.19,0,0,1,0-.13.13.13,0,0,1,.1,0,.13.13,0,0,1,.11,0,.19.19,0,0,1,0,.13v.69a.65.65,0,0,0,0,.2.23.23,0,0,0,.09.12.34.34,0,0,0,.19,0,.28.28,0,0,0,.24-.09.43.43,0,0,0,.07-.27v-.7a.2.2,0,0,1,0-.13.13.13,0,0,1,.1,0,.14.14,0,0,1,.1,0,.19.19,0,0,1,0,.13v.68a1,1,0,0,1,0,.28.42.42,0,0,1-.12.19.46.46,0,0,1-.18.1.77.77,0,0,1-.24,0,1,1,0,0,1-.28,0,.46.46,0,0,1-.19-.11A.45.45,0,0,1,34,39.4a1,1,0,0,1,0-.27"/><path class="cls-3" d="M35.84,39.11h-.1v.45a.19.19,0,0,1,0,.13.15.15,0,0,1-.21,0,.2.2,0,0,1,0-.13V38.47a.15.15,0,0,1,.18-.18h.63l.12,0a.36.36,0,0,1,.2.2.41.41,0,0,1,0,.15.35.35,0,0,1-.09.25.5.5,0,0,1-.27.13.55.55,0,0,1,.15.12,1.23,1.23,0,0,1,.12.17l.09.16a.32.32,0,0,1,0,.1.09.09,0,0,1,0,.06l0,0-.07,0-.08,0-.06-.06-.06-.1-.12-.19a1,1,0,0,0-.11-.16.25.25,0,0,0-.1-.08l-.13,0m.16-.59h-.26v.39H36l.17,0a.2.2,0,0,0,.11-.06.17.17,0,0,0,0-.12.18.18,0,0,0,0-.1.17.17,0,0,0-.08-.07.57.57,0,0,0-.2,0"/><path class="cls-3" d="M37.77,39.55l-.07-.18h-.57l-.07.18a.7.7,0,0,1-.07.14.11.11,0,0,1-.09,0,.13.13,0,0,1-.1,0,.12.12,0,0,1,0-.09.2.2,0,0,1,0-.06l0-.09.36-.92,0-.1,0-.09.06-.06.1,0,.1,0,.07.06,0,.08,0,.11.37.91a.44.44,0,0,1,0,.15.13.13,0,0,1,0,.09.14.14,0,0,1-.1,0h-.06l0,0,0-.06,0-.07m-.57-.39h.42l-.21-.58Z"/><path class="cls-3" d="M39.36,39.29a.42.42,0,0,1-.07.23.44.44,0,0,1-.19.16.73.73,0,0,1-.3.06.67.67,0,0,1-.34-.08.44.44,0,0,1-.16-.15.34.34,0,0,1-.06-.18.12.12,0,0,1,.13-.13.11.11,0,0,1,.08,0,.21.21,0,0,1,.05.09.6.6,0,0,0,.06.11.24.24,0,0,0,.09.07.31.31,0,0,0,.15,0,.34.34,0,0,0,.21-.06.18.18,0,0,0,.08-.15.15.15,0,0,0,0-.11.29.29,0,0,0-.11-.07l-.18,0L38.49,39a.41.41,0,0,1-.16-.13.34.34,0,0,1-.06-.2.35.35,0,0,1,.06-.21.39.39,0,0,1,.18-.14.82.82,0,0,1,.51,0,.49.49,0,0,1,.16.09.38.38,0,0,1,.09.11.26.26,0,0,1,0,.11.14.14,0,0,1,0,.09.12.12,0,0,1-.09,0,.11.11,0,0,1-.07,0L39,38.65a.38.38,0,0,0-.09-.12.28.28,0,0,0-.17,0,.3.3,0,0,0-.18,0,.14.14,0,0,0-.07.12.11.11,0,0,0,0,.07l.06.05.08,0,.14,0,.22.06.16.08a.32.32,0,0,1,.11.12.39.39,0,0,1,0,.18"/><path class="cls-3" d="M41.17,39.29a.42.42,0,0,1-.07.23.44.44,0,0,1-.19.16.72.72,0,0,1-.3.06.67.67,0,0,1-.34-.08.44.44,0,0,1-.16-.15.34.34,0,0,1-.06-.18.12.12,0,0,1,0-.09.12.12,0,0,1,.09,0,.11.11,0,0,1,.08,0,.22.22,0,0,1,.05.09.55.55,0,0,0,.06.11.23.23,0,0,0,.09.07.32.32,0,0,0,.15,0,.33.33,0,0,0,.21-.06.18.18,0,0,0,.08-.15.15.15,0,0,0,0-.11.29.29,0,0,0-.11-.07l-.18,0L40.3,39a.4.4,0,0,1-.16-.13.33.33,0,0,1-.06-.2.35.35,0,0,1,.06-.21.4.4,0,0,1,.18-.14.83.83,0,0,1,.51,0,.52.52,0,0,1,.16.09.36.36,0,0,1,.09.11.26.26,0,0,1,0,.11.13.13,0,0,1,0,.09.12.12,0,0,1-.09,0,.1.1,0,0,1-.07,0l-.06-.08a.4.4,0,0,0-.09-.12.28.28,0,0,0-.17,0,.3.3,0,0,0-.18,0,.14.14,0,0,0-.07.12.11.11,0,0,0,0,.07l.06.05.08,0,.14,0,.22.06L41,39a.34.34,0,0,1,.11.12.39.39,0,0,1,0,.18"/><path class="cls-3" d="M41.49,39.73a.15.15,0,0,1-.1,0,.15.15,0,0,1,0-.21.13.13,0,0,1,.1,0,.14.14,0,0,1,.1,0,.14.14,0,0,1,0,.1.14.14,0,0,1,0,.11.15.15,0,0,1-.1,0"/><path class="cls-3" d="M42.86,39.55l-.07-.18h-.57l-.07.18a.64.64,0,0,1-.07.14.11.11,0,0,1-.09,0,.13.13,0,0,1-.1,0,.12.12,0,0,1,0-.09.2.2,0,0,1,0-.06l0-.09.36-.92,0-.1,0-.09.07-.06.1,0,.1,0,.06.06,0,.08,0,.11.37.91a.44.44,0,0,1,0,.15.13.13,0,0,1,0,.09.14.14,0,0,1-.1,0H43l0,0,0-.06,0-.07m-.57-.39h.42l-.21-.58Z"/><path class="cls-3" d="M43.53,39.73a.15.15,0,0,1-.1,0,.15.15,0,0,1,0-.21.13.13,0,0,1,.1,0,.14.14,0,0,1,.1,0,.14.14,0,0,1,0,.1.14.14,0,0,1,0,.11.15.15,0,0,1-.1,0"/><path class="cls-4" d="M27.93,45.93v-.55h1.26v1.13a2.57,2.57,0,0,1-.64.34,2.17,2.17,0,0,1-.66.09,1.6,1.6,0,0,1-.77-.16,1.11,1.11,0,0,1-.46-.48,1.57,1.57,0,0,1-.16-.73,1.52,1.52,0,0,1,.18-.75,1.16,1.16,0,0,1,.52-.49,1.7,1.7,0,0,1,.72-.13,2,2,0,0,1,.66.08.85.85,0,0,1,.36.25,1.08,1.08,0,0,1,.22.42l-.79.14a.43.43,0,0,0-.17-.23.51.51,0,0,0-.3-.08.53.53,0,0,0-.43.19.9.9,0,0,0-.16.59.93.93,0,0,0,.16.62.57.57,0,0,0,.45.18.85.85,0,0,0,.26,0,1.34,1.34,0,0,0,.29-.14v-.25Z"/><path class="cls-4" d="M29.69,46.89V44.24h1.36a2,2,0,0,1,.58.07.63.63,0,0,1,.32.24.74.74,0,0,1,.12.43.71.71,0,0,1-.35.64,1,1,0,0,1-.29.1.79.79,0,0,1,.21.1.8.8,0,0,1,.13.14,1,1,0,0,1,.12.16l.4.77h-.92l-.44-.81a.64.64,0,0,0-.15-.2.34.34,0,0,0-.2-.06h-.07v1.07Zm.82-1.57h.34l.22,0a.21.21,0,0,0,.13-.08.24.24,0,0,0,.05-.15.24.24,0,0,0-.08-.2.49.49,0,0,0-.31-.07h-.36Z"/><path class="cls-4" d="M34.18,46.45h-.93l-.13.44h-.83l1-2.64h.89l1,2.64h-.86ZM34,45.88l-.29-1-.29,1Z"/><polygon class="cls-4" points="35.43 44.24 36.19 44.24 37.19 45.71 37.19 44.24 37.96 44.24 37.96 46.89 37.19 46.89 36.2 45.44 36.2 46.89 35.43 46.89 35.43 44.24"/><polygon class="cls-4" points="38.5 44.24 40.69 44.24 40.69 44.81 39.32 44.81 39.32 45.23 40.59 45.23 40.59 45.77 39.32 45.77 39.32 46.29 40.73 46.29 40.73 46.89 38.5 46.89 38.5 44.24"/><polygon class="cls-4" points="41.17 44.24 41.99 44.24 41.99 46.24 43.26 46.24 43.26 46.89 41.17 46.89 41.17 44.24"/></svg>