<svg xmlns="http://www.w3.org/2000/svg" xmlns:xlink="http://www.w3.org/1999/xlink" viewBox="0 0 90 90"><defs><style>.cls-1{isolation:isolate;}.cls-2{fill:#fff;}.cls-3{fill:#009b45;}.cls-4{fill:#8abd6c;}.cls-5{fill:#e56521;}.cls-6{fill:#2a9d48;}.cls-7{fill:#75b14a;}.cls-8{fill:#bbd5ae;}.cls-9{fill:#d5e3c7;}.cls-10{fill:#2b62a5;}.cls-11{fill:#2a3066;}.cls-12{fill:#1f7634;}.cls-13{fill:#2675b4;}.cls-14{fill:#63ad3f;}.cls-15{fill:#49a642;}.cls-16{fill:#ef9934;}.cls-17{fill:none;mix-blend-mode:multiply;}.cls-18{fill:url(#Degradado_sin_nombre_3);}</style><linearGradient id="Degradado_sin_nombre_3" x1="32.5" y1="41.26" x2="57.82" y2="41.26" gradientUnits="userSpaceOnUse"><stop offset="0" stop-color="#8dbb23"/><stop offset="0.1" stop-color="#85b925"/><stop offset="0.25" stop-color="#70b329"/><stop offset="0.43" stop-color="#4eaa31"/><stop offset="0.53" stop-color="#39a436"/><stop offset="0.64" stop-color="#319b36"/><stop offset="0.83" stop-color="#1a8135"/><stop offset="1" stop-color="#026634"/></linearGradient></defs><title>Logo Gas Vehicular</title><g class="cls-1"><g id="Capa_1" data-name="Capa 1"><path class="cls-2" d="M11.23,33.23h0a.43.43,0,0,1-.13.25,3.63,3.63,0,0,0-.65,1.2,1.61,1.61,0,0,0,0,1,.28.28,0,0,0,.2.21,2.05,2.05,0,0,0,.68,0,.75.75,0,0,0,.67-.73c0-.43,0-.87,0-1.3a5.05,5.05,0,0,1,0-.8,2.09,2.09,0,0,1,.8-1.44s.1,0,.1-.13a6.16,6.16,0,0,0-1.23.34A2.84,2.84,0,0,0,9.93,34a1.81,1.81,0,0,0,0,1,3,3,0,0,1,1-1.5A.67.67,0,0,1,11.23,33.23ZM85,54l-.16-.24L82.92,51a.56.56,0,0,1-.11-.4,2.1,2.1,0,0,1,.29-.87,2.87,2.87,0,0,0,.36-1.57,3.77,3.77,0,0,0-.29-1.26,6.24,6.24,0,0,0-1.55-2.19A11.61,11.61,0,0,0,79.28,43a24.73,24.73,0,0,0-5.16-2.09,50.47,50.47,0,0,0-6.51-1.43,1.48,1.48,0,0,1-.61-.23c-.33-.22-.68-.43-1-.62a43.34,43.34,0,0,0-9.42-3.84,51,51,0,0,0-7.91-1.58c-1.18-.14-2.36-.25-3.54-.31s-2.64-.09-4-.07q-2.31,0-4.61.27c-1.07.1-2.13.24-3.19.4q-2.32.35-4.6.88a67.27,67.27,0,0,0-7.31,2.14c-.21.07-.16.09-.32-.08l-1.78-2-.6-.67a.19.19,0,0,0-.27,0c-.1.07-.07.16,0,.25l.11.16,1.83,2.54c0,.07.12.13.12.23l-.23.07-2.17.59a1.29,1.29,0,0,0-.73.53.62.62,0,0,0,0,.77,1.08,1.08,0,0,0,.36.34c.17.09.19.22.17.39-.14,1.09-.28,2.18-.41,3.27-.06.45-.12.89-.17,1.34a.26.26,0,0,1-.16.24c-.55.27-1.08.59-1.65.83a.76.76,0,0,0-.26.2,1.51,1.51,0,0,0-.32.6,3.72,3.72,0,0,0-.15,1.05c0,.81.06,1.61.13,2.41a6,6,0,0,0,.26,1.32,2.63,2.63,0,0,0,.43.86,1.42,1.42,0,0,0,1.05.57c.17,0,.18,0,.16-.16s-.06-.55-.08-.83L16.51,49c-.07-.72-.14-1.45-.21-2.17,0-.15,0-.24.16-.29a2.67,2.67,0,0,0,.27-.14l2.13-1.09a.33.33,0,0,0,.2-.28c.08-.67.18-1.33.28-2,.13-.95.25-1.89.41-2.84a1.25,1.25,0,0,0-.17-1,4.92,4.92,0,0,1-.3-.57l.45-.15a85.59,85.59,0,0,1,12-2.69q2.48-.38,5-.59Q38.65,35,40.54,35a60.16,60.16,0,0,1,6.68.11q2,.15,4,.46a39.77,39.77,0,0,1,6.39,1.53,29.65,29.65,0,0,1,7.36,3.58,1.37,1.37,0,0,0,.63.25l.28,0c2.28.42,4.54.94,6.77,1.58a35.33,35.33,0,0,1,5,1.8,12.68,12.68,0,0,1,2.53,1.48A4.65,4.65,0,0,1,81.29,47a2.09,2.09,0,0,1,0,2.31.66.66,0,0,0-.07.52,4.31,4.31,0,0,0,.43,1.07,14.86,14.86,0,0,0,2.28,3s.07.08.14.08Zm-74.23-17a5.81,5.81,0,0,0-.42.84,8,8,0,0,0-.73,3.49,5,5,0,0,0,.59,2.2,5.74,5.74,0,0,0,2.29,2.23s.05,0,.08,0a5.71,5.71,0,0,1-1.28-4.51c0,.12,0,.2.07.29a7.36,7.36,0,0,0,.89,2.46,3.48,3.48,0,0,0,1.85,1.62c.62.21.49.2.94-.19a2.34,2.34,0,0,0,.8-1.21,1.36,1.36,0,0,0-.33-1.34,3.81,3.81,0,0,0-.4-.37c-.37-.29-.76-.54-1.14-.8a11.37,11.37,0,0,1-2-1.63,3.88,3.88,0,0,1-1.14-2.94S10.83,37,10.77,36.91ZM6.71,41.76c0,.28,0,.56.07.84a3.92,3.92,0,0,0,.49,1.57,2.16,2.16,0,0,0,1,.89.26.26,0,0,0,.25,0,2.22,2.22,0,0,0,.81-.64,1,1,0,0,0,0-1.21,5.68,5.68,0,0,0-.48-.56c-.32-.33-.65-.65-.95-1a4.67,4.67,0,0,1-.8-1.23A2.42,2.42,0,0,1,6.9,39c0-.1,0-.2.05-.31a.22.22,0,0,0-.12.1,6.59,6.59,0,0,0-.95,1.58,4.36,4.36,0,0,0-.34,1.4,3.41,3.41,0,0,0,.81,2.46,3.76,3.76,0,0,0,.64.63A3.81,3.81,0,0,1,6.71,41.76Zm6.41,7.43a4.55,4.55,0,0,1-.6-.45,3,3,0,0,1-.49-.61,1.16,1.16,0,0,1-.26-.69l.08.1a3.83,3.83,0,0,0,.62.71,2,2,0,0,0,1.08.55c.61.06.6.05.81-.47l0-.09a.81.81,0,0,0-.58-1.09L13.12,47a6,6,0,0,1-1.48-.47,2,2,0,0,1-1-1.07s0-.09-.08-.12a4.21,4.21,0,0,0,.29,2.32A2.65,2.65,0,0,0,13.12,49.19ZM8.94,34.35h0l-.06,0a4.49,4.49,0,0,0-1.37,1.35A2.7,2.7,0,0,0,7,37.17a3.05,3.05,0,0,0,.37,1.36s0,.08.09.08a4.59,4.59,0,0,1,.08-1.12,3,3,0,0,1,.47-1l0,0,0,.18a3.31,3.31,0,0,0-.14,1.47,1.72,1.72,0,0,0,.5,1,.2.2,0,0,0,.19.08A1.74,1.74,0,0,0,9.19,39a.76.76,0,0,0,.36-1c0-.1-.07-.19-.12-.28L9,36.8a3.62,3.62,0,0,1-.35-1.17A1.91,1.91,0,0,1,8.94,34.35ZM19.72,54H21a.87.87,0,0,0,.94-.89c0-.28,0-.57,0-.85s-.08-.26-.24-.26h-1a.23.23,0,0,0-.23.17.23.23,0,0,0,.23.3h.62c.09,0,.15,0,.15.13s0,.32,0,.47c0,.31-.16.44-.47.44H18.51c-.25,0-.32-.06-.32-.3,0-.56,0-1.12,0-1.68a.66.66,0,0,1,0-.12c0-.2.11-.27.32-.27h1.33A.2.2,0,0,0,20,51a.22.22,0,0,0-.12-.23.35.35,0,0,0-.16,0h-1.3a.68.68,0,0,0-.64.45,1.06,1.06,0,0,0-.08.42c0,.57,0,1.14,0,1.71a.71.71,0,0,0,.78.76Z"/><path class="cls-3" d="M85,54h-.88c-.06,0-.1,0-.14-.08a14.86,14.86,0,0,1-2.28-3,4.31,4.31,0,0,1-.43-1.07.66.66,0,0,1,.07-.52,2.09,2.09,0,0,0,0-2.31,4.65,4.65,0,0,0-1.12-1.18,12.68,12.68,0,0,0-2.53-1.48,35.33,35.33,0,0,0-5-1.8c-2.23-.64-4.49-1.16-6.77-1.58l-.28,0a1.37,1.37,0,0,1-.63-.25,29.65,29.65,0,0,0-7.36-3.58,39.77,39.77,0,0,0-6.39-1.53q-2-.31-4-.46A60.16,60.16,0,0,0,40.54,35q-1.89.07-3.78.24-2.5.21-5,.59a85.59,85.59,0,0,0-12,2.69l-.45.15a4.92,4.92,0,0,0,.3.57,1.25,1.25,0,0,1,.17,1c-.15.94-.27,1.89-.41,2.84-.09.66-.19,1.33-.28,2a.33.33,0,0,1-.2.28l-2.13,1.09a2.67,2.67,0,0,1-.27.14c-.14.05-.17.15-.16.29.08.72.14,1.45.21,2.17l.22,2.29c0,.28.06.55.08.83s0,.17-.16.16a1.42,1.42,0,0,1-1.05-.57,2.63,2.63,0,0,1-.43-.86,6,6,0,0,1-.26-1.32c-.06-.8-.14-1.61-.13-2.41a3.72,3.72,0,0,1,.15-1.05,1.51,1.51,0,0,1,.32-.6.76.76,0,0,1,.26-.2c.57-.24,1.09-.56,1.65-.83a.26.26,0,0,0,.16-.24c.05-.45.11-.89.17-1.34.14-1.09.27-2.18.41-3.27,0-.17,0-.3-.17-.39a1.08,1.08,0,0,1-.36-.34.62.62,0,0,1,0-.77,1.29,1.29,0,0,1,.73-.53L20.25,37l.23-.07c0-.1-.07-.16-.12-.23l-1.83-2.54L18.42,34c0-.09-.08-.18,0-.25a.19.19,0,0,1,.27,0l.6.67,1.78,2c.15.17.11.16.32.08a67.27,67.27,0,0,1,7.31-2.14q2.28-.53,4.6-.88c1.06-.16,2.13-.3,3.19-.4q2.3-.22,4.61-.27c1.32,0,2.64,0,4,.07s2.36.17,3.54.31a51,51,0,0,1,7.91,1.58A43.34,43.34,0,0,1,66,38.63c.35.2.7.4,1,.62a1.48,1.48,0,0,0,.61.23,50.47,50.47,0,0,1,6.51,1.43A24.73,24.73,0,0,1,79.28,43a11.61,11.61,0,0,1,2.34,1.69,6.24,6.24,0,0,1,1.55,2.19,3.77,3.77,0,0,1,.29,1.26,2.87,2.87,0,0,1-.36,1.57,2.1,2.1,0,0,0-.29.87.56.56,0,0,0,.11.4l1.92,2.73Z"/><path class="cls-4" d="M10.77,36.91c.06,0,0,.1,0,.14A3.88,3.88,0,0,0,11.95,40a11.37,11.37,0,0,0,2,1.63c.39.26.77.52,1.14.8a3.81,3.81,0,0,1,.4.37,1.36,1.36,0,0,1,.33,1.34,2.34,2.34,0,0,1-.8,1.21c-.45.39-.32.4-.94.19a3.48,3.48,0,0,1-1.85-1.62,7.36,7.36,0,0,1-.89-2.46c0-.08,0-.17-.07-.29a5.71,5.71,0,0,0,1.28,4.51s-.05,0-.08,0a5.74,5.74,0,0,1-2.29-2.23,5,5,0,0,1-.59-2.2,8,8,0,0,1,.73-3.49A5.81,5.81,0,0,1,10.77,36.91Z"/><path class="cls-5" d="M33.31,52.38c-.31-.23-.65-.42-1-.63s-.21-.13-.12-.37a6.5,6.5,0,0,1,4.48-4.19c.23-.07.46-.11.69-.16s.23-.09.22-.29,0-.5-.05-.76c0,0,0-.06,0-.14l2.92,2.33a.17.17,0,0,1,0,.12l-1.32,1.45L39.11,49l0,0a6.12,6.12,0,0,0-2.28.64c-.05-.09-.13-.06-.2,0a2,2,0,0,0-.66.39,2.75,2.75,0,0,0-.6.75c-.07.11-.18.21-.15.36h0a.19.19,0,0,0-.15.06.1.1,0,0,1-.13,0,.9.9,0,0,1-.34-.54,2.93,2.93,0,0,1,.18-.92.23.23,0,0,1,.06-.1c.11-.11.2-.24.31-.36a2.81,2.81,0,0,0,.59-1s.06-.08,0-.13a7,7,0,0,0-1.15.85,6.55,6.55,0,0,0-.88,1,5.43,5.43,0,0,0-.73,1.4c-.09.27-.08.28.13.46l1.35,1.1a.35.35,0,0,1-.37,0,2.28,2.28,0,0,0-.53-.3h0c0-.06-.07-.07-.12-.09A.13.13,0,0,0,33.31,52.38Z"/><path class="cls-4" d="M6.71,41.76A3.81,3.81,0,0,0,7,44.88a3.76,3.76,0,0,1-.64-.63,3.41,3.41,0,0,1-.81-2.46,4.36,4.36,0,0,1,.34-1.4,6.59,6.59,0,0,1,.95-1.58.22.22,0,0,1,.12-.1c0,.11,0,.21-.05.31a2.42,2.42,0,0,0,.17,1.41,4.67,4.67,0,0,0,.8,1.23c.3.35.63.67.95,1a5.68,5.68,0,0,1,.48.56,1,1,0,0,1,0,1.21,2.22,2.22,0,0,1-.81.64.26.26,0,0,1-.25,0,2.16,2.16,0,0,1-1-.89,3.92,3.92,0,0,1-.49-1.57C6.74,42.32,6.73,42,6.71,41.76Z"/><path class="cls-6" d="M26.74,53.74c.09-.2.25-.21.41-.21h2.53c.29,0,.32,0,.32-.34,0-.13,0-.25,0-.38s0-.15-.14-.15H27.55a1.36,1.36,0,0,1-.4,0,.66.66,0,0,1-.5-.67c0-.19,0-.38,0-.57a.67.67,0,0,1,.68-.72c.41,0,.82,0,1.23,0,.17,0,.27.1.27.23a.25.25,0,0,1-.27.24h-1c-.44,0-.45,0-.45.45,0,.11,0,.22,0,.33s0,.21.2.25a1.23,1.23,0,0,0,.26,0h2.16a1.12,1.12,0,0,1,.37,0,.48.48,0,0,1,.36.49c0,.2,0,.39,0,.59a.65.65,0,0,1-.67.68c-.59,0-1.18,0-1.78,0H27.1c-.2,0-.2,0-.35-.16l0,.06c-.15.19-.29.19-.44,0s-.37-.48-.54-.72a.33.33,0,0,0-.31-.16h-2.3a.32.32,0,0,0-.3.15c-.15.21-.31.42-.47.62a.78.78,0,0,1-.12.14.21.21,0,0,1-.28,0,.22.22,0,0,1-.07-.27.78.78,0,0,1,.11-.16c.67-.89,1.35-1.77,2-2.66.24-.32.4-.26.6,0,.65.89,1.32,1.77,2,2.66Zm-2.46-2.48-1,1.27a10.71,10.71,0,0,0,1.91,0Z"/><path class="cls-5" d="M70.72,53.75a.35.35,0,0,1-.39.23H67.79l-.21,0a.79.79,0,0,1-.73-.82c0-.72,0-1.44,0-2.16a.54.54,0,0,1,0-.14.22.22,0,0,1,.25-.17.21.21,0,0,1,.21.19,1,1,0,0,1,0,.17c0,.66,0,1.33,0,2,0,.37.09.48.48.48h2.54c.16,0,.3,0,.37.2.09,0,.11-.11.15-.16l2.08-2.73a.47.47,0,0,1,.16-.17c.11-.05.23,0,.33.12l.69.93,1.39,1.86a1,1,0,0,1,.1.14.23.23,0,0,1-.07.31.22.22,0,0,1-.3,0,1.23,1.23,0,0,1-.12-.15c-.16-.21-.33-.43-.48-.65a.31.31,0,0,0-.3-.15H72a.3.3,0,0,0-.28.14c-.16.22-.32.43-.48.64S70.92,54.05,70.72,53.75Zm3.44-1.21-1-1.29-1,1.29Z"/><path class="cls-5" d="M77.62,52.79c0,.06.08.06.13.08l1.6.64a.86.86,0,0,1,.17.08.22.22,0,0,1,.09.27.22.22,0,0,1-.24.15.7.7,0,0,1-.22-.07l-2.57-1a.44.44,0,0,0-.26-.07c0,.25,0,.5,0,.75a1.05,1.05,0,0,1,0,.21.23.23,0,0,1-.46,0,.92.92,0,0,1,0-.12q0-1.35,0-2.7c0-.29.05-.34.35-.35h2.7a1.22,1.22,0,0,1,.55.11.64.64,0,0,1,.39.6c0,.21,0,.41,0,.62a.78.78,0,0,1-.82.83H77.75S77.66,52.75,77.62,52.79Zm.12-1.7H76.49c-.18,0-.18,0-.18.19s0,.57,0,.85c0,.12,0,.17.16.16h2.46c.31,0,.41-.11.42-.41,0-.13,0-.27,0-.4,0-.3-.05-.36-.35-.38H77.74Z"/><path class="cls-7" d="M13.12,49.19a2.65,2.65,0,0,1-2.25-1.56,4.21,4.21,0,0,1-.29-2.32c.06,0,.07.08.08.12a2,2,0,0,0,1,1.07,6,6,0,0,0,1.48.47l.69.17a.81.81,0,0,1,.58,1.09l0,.09c-.21.53-.2.54-.81.47a2,2,0,0,1-1.08-.55,3.83,3.83,0,0,1-.62-.71l-.08-.1a1.16,1.16,0,0,0,.26.69,3,3,0,0,0,.49.61A4.55,4.55,0,0,0,13.12,49.19Z"/><path class="cls-8" d="M8.94,34.35a1.91,1.91,0,0,0-.31,1.28A3.62,3.62,0,0,0,9,36.8l.46,1c0,.09.08.19.12.28a.76.76,0,0,1-.36,1,1.74,1.74,0,0,1-.64.22.2.2,0,0,1-.19-.08,1.72,1.72,0,0,1-.5-1A3.31,3.31,0,0,1,8,36.7l0-.18,0,0a3,3,0,0,0-.47,1,4.59,4.59,0,0,0-.08,1.12c-.07,0-.08,0-.09-.08A3.05,3.05,0,0,1,7,37.17a2.7,2.7,0,0,1,.44-1.45,4.49,4.49,0,0,1,1.37-1.35l.06,0Z"/><path class="cls-9" d="M11.23,33.23a.67.67,0,0,0-.31.2,3,3,0,0,0-1,1.5,1.81,1.81,0,0,1,0-1,2.84,2.84,0,0,1,1.83-2.07A6.16,6.16,0,0,1,13,31.57c0,.08-.07.1-.1.13a2.09,2.09,0,0,0-.8,1.44,5.05,5.05,0,0,0,0,.8c0,.43,0,.87,0,1.3a.75.75,0,0,1-.67.73,2.05,2.05,0,0,1-.68,0,.28.28,0,0,1-.2-.21,1.61,1.61,0,0,1,0-1,3.63,3.63,0,0,1,.65-1.2.43.43,0,0,0,.13-.25s.07,0,0,0S11.24,33.21,11.23,33.23Z"/><path class="cls-10" d="M43,49.59a6.46,6.46,0,0,1,.71,1.92,5.68,5.68,0,0,1-.54,3.68,2.23,2.23,0,0,1-.59.79.53.53,0,0,1-.3.25,1.46,1.46,0,0,1-.61.5,1.53,1.53,0,0,1-.76.2c-.29,0-.42-.16-.36-.45a.31.31,0,0,1,.06-.12.06.06,0,0,0,0-.1,2,2,0,0,1,.12-.18,1.87,1.87,0,0,0,.56-1.25,1,1,0,0,1,.28.2.17.17,0,0,0,.26,0,4.06,4.06,0,0,0,1.05-1.44,4.56,4.56,0,0,0,.4-1.4,6.23,6.23,0,0,0,0-1.77C43.2,50.15,43.09,49.88,43,49.59Z"/><path class="cls-6" d="M60.4,56.92l-.32.31a1.54,1.54,0,0,1-.64.38.47.47,0,0,1-.35,0,.4.4,0,0,1-.27-.38.19.19,0,0,0,0-.16c-.09,0-.13.07-.19.12a2,2,0,0,1-.2.17.29.29,0,0,1-.46-.1c-.07-.11-.12-.22-.18-.33a.08.08,0,0,0-.13,0l-.23.23c-.22.23-.38.22-.59,0l0,0c-.23-.3-.31-.24-.56,0a3.67,3.67,0,0,0-.29.37l-.09.11a.13.13,0,0,1-.15,0,.12.12,0,0,1-.06-.14c0-.08,0-.15.05-.23a2.23,2.23,0,0,0,.11-.62c-.07,0-.11,0-.15,0a6.78,6.78,0,0,0-.6.67l-.16.17a.14.14,0,0,1-.18,0c-.05,0,0-.08,0-.13l.14-.55a.12.12,0,0,0,0-.12c-.25.18-.42.48-.75.59a.36.36,0,0,1,.12-.26l.76-.84a.76.76,0,0,1,.19-.15c.13-.07.22,0,.21.13s0,.25-.05.37a.11.11,0,0,0,0,.1,4.45,4.45,0,0,0,.54-.55A.47.47,0,0,1,56,56c.18-.08.26,0,.27.17s-.05.39-.07.6a.76.76,0,0,0,.22-.19.87.87,0,0,1,.2-.16.23.23,0,0,1,.34.09c.06.1.1.21.17.31s.14.14.26,0,.25-.3.39-.45.07-.1.15-.11a.22.22,0,0,1,.27.2,2.2,2.2,0,0,0,.07.39c.06.17.16.21.28.09s.49-.37.71-.58a2.77,2.77,0,0,1,.62-.44c.07,0,.17-.1.23,0a.22.22,0,0,1,0,.26.83.83,0,0,1-.16.14l-.52.4a.4.4,0,0,0-.11.12.35.35,0,0,0,0,.36c.05.09.18.1.32.05A1.16,1.16,0,0,0,60,57a7.16,7.16,0,0,0,.66-.71c.11-.12.23-.24.35-.35a.24.24,0,0,1,.17-.08l.08,0c0,.19.14.1.23.11a.38.38,0,0,1,.36.39.64.64,0,0,1-.07.3,1.53,1.53,0,0,1-.76.77c-.39.15-.6,0-.58-.41a1.05,1.05,0,0,1,0-.14Zm.42.13c0,.2.06.24.22.16a.84.84,0,0,0,.43-.56.18.18,0,0,0-.1-.22.16.16,0,0,0-.21.06c0,.06-.09.14-.15.18S60.84,56.91,60.82,57Z"/><path class="cls-11" d="M43,49.59c.06.29.17.56.22.84a6.23,6.23,0,0,1,0,1.77,4.56,4.56,0,0,1-.4,1.4A4.06,4.06,0,0,1,41.84,55a.17.17,0,0,1-.26,0,1,1,0,0,0-.28-.2,1.87,1.87,0,0,1-.56,1.25,2,2,0,0,0-.12.18c-.27.35-.54.69-.78,1.06-.14-.08-.15-.24-.23-.36l.14-.22.49-.7A3.29,3.29,0,0,0,40.74,55c0-.17,0-.34.06-.51a1.28,1.28,0,0,1,.51.38,4,4,0,0,0,1.58-3.15A4.07,4.07,0,0,0,42,48.82a2.76,2.76,0,0,0-1.69-1.08.86.86,0,0,1,.12-.27c.12-.25.12-.25.38-.15a3.52,3.52,0,0,1,1.83,1.6C42.82,49.14,42.92,49.37,43,49.59Z"/><path class="cls-6" d="M74.07,56.94c-.14.05-.21.16-.31.22s-.12.12-.18.06,0-.14.07-.19.19-.21.28-.32a5.25,5.25,0,0,0,.35-.53,2.27,2.27,0,0,1,.59-.67c.08-.06.17-.13.28-.05s.06.19,0,.3a3.72,3.72,0,0,1-.51.59.49.49,0,0,0-.07.68.5.5,0,0,0,.2.24c.22-.24.45-.46.65-.72l.17-.2a.2.2,0,0,1,.23-.07.2.2,0,0,1,.15.19,2.9,2.9,0,0,0,.07.37c.06.2.16.24.31.1s.47-.35.68-.55a4.24,4.24,0,0,1,.53-.4l.15-.07c.06,0,.13-.06.18,0a.19.19,0,0,1,0,.22.54.54,0,0,1-.2.2l-.52.4a.34.34,0,0,0-.14.35.23.23,0,0,0,.31.2.85.85,0,0,0,.21-.1,2.31,2.31,0,0,0,.53-.46c.21-.23.41-.48.64-.7a.42.42,0,0,1,.22-.14s.11,0,.11,0c0,.19.14.1.22.11a.38.38,0,0,1,.36.39.6.6,0,0,1-.05.25,1.49,1.49,0,0,1-.84.84c-.3.11-.47,0-.5-.32,0-.07,0-.14,0-.21a.92.92,0,0,0-.28.24,1.59,1.59,0,0,1-.64.39.48.48,0,0,1-.33,0,.41.41,0,0,1-.3-.38c0-.06,0-.11,0-.17s-.13,0-.18.09a1.45,1.45,0,0,1-.23.2.29.29,0,0,1-.46-.11c-.06-.1-.11-.21-.17-.31s-.1-.08-.17,0a3.82,3.82,0,0,0-.46.5.13.13,0,0,0,0,.17l.07.12a.68.68,0,0,1,0,.78,1.25,1.25,0,0,1-.52.47.61.61,0,0,1-.3.07.25.25,0,0,1-.27-.26A1,1,0,0,1,74.1,58l.28-.35a.13.13,0,0,0,0-.2A.91.91,0,0,1,74.07,56.94Zm.51.88-.25.31a1.45,1.45,0,0,0-.25.45c0,.16,0,.23.17.2a.8.8,0,0,0,.51-.56A.38.38,0,0,0,74.59,57.82Zm4-.76c0,.15,0,.21.13.19a.85.85,0,0,0,.53-.66.18.18,0,0,0-.1-.15.15.15,0,0,0-.19,0c-.06.06-.1.16-.17.19S78.64,56.93,78.6,57.06ZM78.2,57l0,0h0v0Z"/><path class="cls-6" d="M19.72,54H18.49a.71.71,0,0,1-.78-.76c0-.57,0-1.14,0-1.71a1.06,1.06,0,0,1,.08-.42.68.68,0,0,1,.64-.45h1.3a.35.35,0,0,1,.16,0A.22.22,0,0,1,20,51a.2.2,0,0,1-.17.2H18.52c-.21,0-.28.07-.32.27a.66.66,0,0,0,0,.12c0,.56,0,1.12,0,1.68,0,.24.07.3.32.3h2.44c.31,0,.44-.13.47-.44,0-.16,0-.32,0-.47s-.05-.13-.15-.13h-.62a.23.23,0,0,1-.23-.3.23.23,0,0,1,.23-.17h1c.16,0,.24.1.24.26s0,.57,0,.85A.87.87,0,0,1,21,54Z"/><path class="cls-5" d="M50.66,52.48h-1.4c-.19,0-.19,0-.19.2a3.55,3.55,0,0,0,0,.5c0,.27.13.34.41.34h2.7a.23.23,0,0,1,.22.23.24.24,0,0,1-.22.24H52c-.83,0-1.66,0-2.49,0a.82.82,0,0,1-.92-.85c0-.61,0-1.23,0-1.85a.64.64,0,0,1,.6-.62c.46,0,.92,0,1.37,0a.22.22,0,0,1,.23.22.24.24,0,0,1-.21.25H49.37c-.24,0-.3.06-.3.29s0,.22,0,.33,0,.23.22.23h2.87a.24.24,0,0,1,.21.25.25.25,0,0,1-.22.22H50.66Z"/><path class="cls-12" d="M35.36,57.88a4,4,0,0,1-3-2.7,5.88,5.88,0,0,1-.28-1,.32.32,0,0,0-.19-.25L31,53.5l2-.93c.05.06,0,.08,0,.1l-1.13.82c-.19.14-.19.14,0,.29l.4.33a.88.88,0,0,0,.09.33,1,1,0,0,0,.15.38.05.05,0,0,0,0,0,.11.11,0,0,0,0,.1.27.27,0,0,0,.06.14.06.06,0,0,0,0,0h0a.88.88,0,0,0,.24.43h0a.4.4,0,0,0,.19.28h0a.15.15,0,0,0,.1.14h0l0,.06a1.68,1.68,0,0,0,.57.56,2.59,2.59,0,0,0,1.13.6,4.19,4.19,0,0,0,1.77.09.88.88,0,0,0,.37-.07c.07,0,.14,0,.19,0a3.41,3.41,0,0,0,1.58-.57.08.08,0,0,1,.12,0A2.22,2.22,0,0,0,39,57c0,.13.1.25,0,.38l-.67.22a6.88,6.88,0,0,1-1.95.31A9.18,9.18,0,0,1,35.36,57.88Z"/><path class="cls-5" d="M54.74,52h1.35c.18,0,.18,0,.18-.19s0-.52,0-.78a1.27,1.27,0,0,1,0-.17.22.22,0,0,1,.22-.21.23.23,0,0,1,.25.21,1.06,1.06,0,0,1,0,.17q0,1.28,0,2.56a1.2,1.2,0,0,1,0,.14.24.24,0,0,1-.25.23.24.24,0,0,1-.22-.24c0-.29,0-.58,0-.88s0-.37-.38-.37H53.37c-.2,0-.2,0-.2.19s0,.58,0,.88c0,0,0,.09,0,.14s-.1.27-.24.27-.23-.1-.24-.27,0-.08,0-.12q0-1.27,0-2.53a1.29,1.29,0,0,1,0-.19.21.21,0,0,1,.2-.2.22.22,0,0,1,.25.17.77.77,0,0,1,0,.19c0,.24,0,.47,0,.71s0,.27.28.27Z"/><path class="cls-5" d="M60.32,54c-.46,0-.92,0-1.37,0a.73.73,0,0,1-.78-.76c0-.15,0-.3,0-.45,0-.47,0-.93,0-1.4a.68.68,0,0,1,.75-.75h2.73a.75.75,0,0,1,.19,0,.23.23,0,0,1,0,.45,1,1,0,0,1-.21,0H58.94c-.24,0-.29.05-.3.29s0,.47,0,.71,0,.66,0,1a.9.9,0,0,0,0,.21.22.22,0,0,0,.24.19h3a.24.24,0,0,1,.21.24.23.23,0,0,1-.23.22H60.32Z"/><path class="cls-5" d="M64.43,54H63.27a.74.74,0,0,1-.75-.56,1.32,1.32,0,0,1-.05-.44c0-.65,0-1.29,0-1.94,0,0,0-.1,0-.14a.23.23,0,0,1,.25-.23.22.22,0,0,1,.23.23A1.2,1.2,0,0,1,63,51q0,1,0,1.94c0,.06,0,.11,0,.17,0,.28.13.38.41.38h2.2c.31,0,.5-.13.49-.49,0-.66,0-1.31,0-2a.84.84,0,0,1,0-.21.23.23,0,0,1,.25-.17.22.22,0,0,1,.2.2,1.58,1.58,0,0,1,0,.19c0,.66,0,1.31,0,2a.89.89,0,0,1-1,1H64.43Z"/><path class="cls-6" d="M69.09,56.95a3,3,0,0,1-.56.5,2,2,0,0,1-.36.17c-.27.09-.66-.13-.62-.43a.65.65,0,0,0,0-.14.72.72,0,0,0-.31.22.68.68,0,0,1-.48.22.43.43,0,0,1-.48-.3l0-.11c-.15,0-.23.19-.42.21a.72.72,0,0,1,.26-.39.68.68,0,0,0,.23-.39,1.21,1.21,0,0,1,.55-.71.27.27,0,0,1,.31,0,.26.26,0,0,1,.09.3.91.91,0,0,1-.24.4,1.78,1.78,0,0,1-.28.25c-.09.06-.16.13-.09.25a.24.24,0,0,0,.3.13.85.85,0,0,0,.29-.15q.55-.46,1.13-.89a.89.89,0,0,1,.36-.18c.08,0,.11,0,.12.1a.31.31,0,0,1-.18.31c-.2.12-.35.29-.54.42a.34.34,0,0,0-.16.37.23.23,0,0,0,.28.21.66.66,0,0,0,.24-.1,2.44,2.44,0,0,0,.56-.5c.2-.23.4-.46.62-.68a.37.37,0,0,1,.2-.12s.1,0,.11,0,.13.1.22.11a.38.38,0,0,1,.37.45,1,1,0,0,1-.19.45,1.34,1.34,0,0,1-.67.57.87.87,0,0,1-.21,0,.28.28,0,0,1-.32-.27c0-.09,0-.19,0-.28a.05.05,0,0,0,0-.06S69.11,56.93,69.09,56.95Zm.45.1c0,.07,0,.14.06.19s.12,0,.17,0a.84.84,0,0,0,.42-.56.18.18,0,0,0-.09-.2.15.15,0,0,0-.21,0c-.05.06-.09.15-.15.18S69.57,56.89,69.54,57Zm-2.67-.86a.51.51,0,0,0-.29.41C66.72,56.45,66.88,56.38,66.87,56.19Z"/><path class="cls-5" d="M46,53.32c.08,0,.11-.11.15-.17l1.59-2.24a1.06,1.06,0,0,1,.15-.18.22.22,0,0,1,.28,0,.21.21,0,0,1,.07.27,1,1,0,0,1-.09.14L46.29,53.8l-.08.11a.24.24,0,0,1-.37,0l-.07-.09-1.93-2.7a.49.49,0,0,1-.1-.16.23.23,0,0,1,.1-.27.22.22,0,0,1,.28,0,1.14,1.14,0,0,1,.13.17l1.61,2.25A.49.49,0,0,0,46,53.32Z"/><path class="cls-6" d="M72.29,57a.42.42,0,0,0-.2.17,1.43,1.43,0,0,1-.42.34.47.47,0,0,1-.67-.26.88.88,0,0,1-.08-.29l-.45.34s-.05,0-.09,0,0-.06,0-.1a1.46,1.46,0,0,1,.37-.43.47.47,0,0,0,.17-.37,3.48,3.48,0,0,1,.31-1.16c.06-.14.13-.29.2-.43a2,2,0,0,1,.29-.43c.07-.08.14-.16.26-.1a.21.21,0,0,1,.12.24,2.43,2.43,0,0,1-.11.63,5.94,5.94,0,0,1-.69,1.42.44.44,0,0,0,.15.59.34.34,0,0,0,.37-.07,1.94,1.94,0,0,0,.37-.36,9.16,9.16,0,0,1,.62-.68.37.37,0,0,1,.18-.11s.1,0,.11,0,.18.1.29.12a.39.39,0,0,1,.31.44,1.46,1.46,0,0,1-1,1.06.31.31,0,0,1-.43-.32C72.29,57.15,72.29,57.07,72.29,57Zm.4.1a.17.17,0,0,0,.06.17c.07,0,.12,0,.17,0a.8.8,0,0,0,.41-.57.18.18,0,0,0-.09-.2.16.16,0,0,0-.21.05c0,.06-.09.15-.15.18S72.73,56.91,72.69,57.07Zm-1.43-.89A2.31,2.31,0,0,0,71.76,55,3.07,3.07,0,0,0,71.26,56.18Z"/><path class="cls-6" d="M52.76,57a2.47,2.47,0,0,1-.22.25c-.21.18-.36.15-.49-.09s-.21-.37-.51-.09c-.15.13-.25.3-.39.44l-.1.1a.21.21,0,0,1-.25.08c-.1,0-.06-.15,0-.23s.11-.43.17-.64a.13.13,0,0,0,0-.15c-.27.22-.46.54-.83.69a.34.34,0,0,1,.12-.26c.28-.29.52-.61.79-.91a.62.62,0,0,1,.2-.16c.16-.07.29,0,.28.19a1.62,1.62,0,0,1-.12.46.67.67,0,0,0-.07.31c.17-.08.24-.25.36-.35a1.09,1.09,0,0,1,.24-.19c.17-.08.26-.05.35.11a1.5,1.5,0,0,1,.11.29c.05.17.12.18.25.07a2.82,2.82,0,0,0,.38-.42c.12-.14.26-.25.37-.39a.31.31,0,0,1,.18-.11s.1,0,.11,0c0,.18.15.1.24.11a.38.38,0,0,1,.35.42.74.74,0,0,1-.09.32,1.83,1.83,0,0,1-.5.59,1.07,1.07,0,0,1-.41.18.3.3,0,0,1-.4-.3c0-.08,0-.17,0-.26Zm.47.09c0,.07,0,.14.06.19s.12,0,.17,0a.83.83,0,0,0,.42-.57.17.17,0,0,0-.09-.2.15.15,0,0,0-.21,0c-.05.06-.09.15-.15.18S53.25,56.9,53.23,57.05Z"/><path class="cls-6" d="M45.45,57.53a2.5,2.5,0,0,0,.78-.08,1.19,1.19,0,0,0,.48-.18.07.07,0,0,1,.08,0,.08.08,0,0,1,0,.1.39.39,0,0,1-.17.22,2.28,2.28,0,0,1-1.12.4c-.09,0-.22,0-.24,0s-.18-.18-.16-.34,0-.57,0-.85.1-.79.16-1.19a1.42,1.42,0,0,1,.58-.91,1.14,1.14,0,0,1,.85-.2c.09,0,.19,0,.21.12a.51.51,0,0,1,0,.37.09.09,0,0,1-.13,0,1.19,1.19,0,0,0-.74,0,.19.19,0,0,0-.15.13,2.69,2.69,0,0,0-.13.5,4.7,4.7,0,0,0-.14.61c.07,0,.1,0,.13,0a1.21,1.21,0,0,1,.84-.24.17.17,0,0,1,.18.12.38.38,0,0,1-.05.29s-.06,0-.09,0a2.19,2.19,0,0,0-.85.08c-.21.05-.24.08-.26.3S45.48,57.26,45.45,57.53Z"/><path class="cls-6" d="M47.24,57.06c-.12,0-.17.07-.25.11s-.08,0-.11,0a.09.09,0,0,1,0-.11,2.44,2.44,0,0,1,.27-.3c.3-.24.61-.48.91-.71a.78.78,0,0,1,.32-.15c.09,0,.13,0,.13.11a.33.33,0,0,1-.19.3c-.19.12-.36.29-.54.42a.33.33,0,0,0-.15.35.23.23,0,0,0,.3.22.66.66,0,0,0,.22-.09,2.41,2.41,0,0,0,.57-.49c.2-.23.4-.46.62-.68a.37.37,0,0,1,.22-.13s.1,0,.1,0,.08.1.16.1a.38.38,0,0,1,.41.47,1.48,1.48,0,0,1-1,1,.3.3,0,0,1-.42-.31c0-.09,0-.17,0-.27s-.22.16-.3.25a1.7,1.7,0,0,1-.59.38.48.48,0,0,1-.69-.45A.33.33,0,0,0,47.24,57.06Zm2.48-.65a.18.18,0,0,0-.14.09c0,.06-.09.14-.15.18s-.17.3-.18.47.07.13.16.08a.81.81,0,0,0,.48-.6A.18.18,0,0,0,49.73,56.41Z"/><path class="cls-6" d="M64.74,57.07c.17-.12.31-.29.49-.4s.08-.08.15,0,0,.13-.06.19a3.47,3.47,0,0,1-.39.41,2.9,2.9,0,0,0-.68.84,4.44,4.44,0,0,1-.58.86.38.38,0,0,1-.3.17c-.08,0-.13,0-.09-.12a1.38,1.38,0,0,1,.13-.25c.21-.31.41-.61.64-.91a1.81,1.81,0,0,0,.23-.64,1.74,1.74,0,0,0,0-.28.22.22,0,0,0-.2.12,3.25,3.25,0,0,1-.42.42.27.27,0,0,1-.14.08c-.14,0-.21,0-.22-.16s0-.22,0-.34c-.2.05-.33.21-.5.28s0-.09,0-.13a.79.79,0,0,1,.22-.28,3.49,3.49,0,0,0,.46-.48.7.7,0,0,1,.12-.11.13.13,0,0,1,.15,0,.13.13,0,0,1,.07.14c0,.11,0,.22-.07.32a.56.56,0,0,0,0,.31,1.34,1.34,0,0,0,.46-.4l.38-.42.11-.09a.16.16,0,0,1,.18,0c.07,0,.06.11,0,.17-.06.24-.13.49-.2.73,0,0-.06.08,0,.12S64.72,57.1,64.74,57.07Z"/><path class="cls-13" d="M40.36,47.74A2.76,2.76,0,0,1,42,48.82a4.07,4.07,0,0,1,.84,2.86,5.68,5.68,0,0,0-.25-.56,3.5,3.5,0,0,0-1.42-1.32.78.78,0,0,1-.46-.69,2.08,2.08,0,0,0-.23-.81.17.17,0,0,0,0-.12Zm2.21,2.49h0a1.12,1.12,0,0,0,0-.14.64.64,0,0,0,0-.11,3.66,3.66,0,0,0-.69-1.19.7.7,0,0,0-.23-.17c-.19-.1-.31,0-.32.2a1.38,1.38,0,0,0,.12.57,2.76,2.76,0,0,0,.93,1.07.15.15,0,0,0,.22-.09A.73.73,0,0,0,42.57,50.23Z"/><path class="cls-4" d="M32.22,54.1l-.4-.33c-.19-.15-.19-.15,0-.29l1.13-.82s.1,0,0-.1.23-.1.32-.18a.13.13,0,0,1,.08.05s0,.13.12.09h0c-.06.09,0,.14.07.2l1.31,1.93s.09.08,0,.15l-.42,0c-.17,0-.18,0-.15.16s.06.21.1.32c.08.26.22.48.33.73h-.1a.52.52,0,0,0-.14-.19.09.09,0,0,0-.09-.1v-.09a2,2,0,0,0-.16-.43.55.55,0,0,1-.08-.28c0-.11-.1-.22,0-.34a.35.35,0,0,0,0-.42,6.34,6.34,0,0,0-.63-1,.15.15,0,0,0-.22,0,6.45,6.45,0,0,0-.7.4.65.65,0,0,0-.38.53S32.24,54.08,32.22,54.1Z"/><path class="cls-5" d="M57.75,52.31c0,.44,0,.88,0,1.33,0,.23-.09.34-.24.34s-.24-.1-.24-.34c0-.88,0-1.75,0-2.63a.72.72,0,0,1,0-.14.23.23,0,0,1,.23-.19.22.22,0,0,1,.23.2,1.1,1.1,0,0,1,0,.19Q57.75,51.69,57.75,52.31Z"/><path class="cls-14" d="M35.36,57.88a9.18,9.18,0,0,0,1,.05,6.88,6.88,0,0,0,1.95-.31l.67-.22a.5.5,0,0,1,.29.07,4.38,4.38,0,0,0,.77.3,2.17,2.17,0,0,1-.72.18,10.5,10.5,0,0,1-2.66.15A5.32,5.32,0,0,1,35.36,57.88Z"/><path class="cls-13" d="M39.84,57.33c.24-.37.51-.71.78-1.06a.06.06,0,0,1,0,.1.31.31,0,0,0-.06.12c-.05.29.07.43.36.45a1.53,1.53,0,0,0,.76-.2,1.46,1.46,0,0,0,.61-.5.42.42,0,0,1,.23-.15c0,.58.07.47-.37.71a4.94,4.94,0,0,1-2.08.57Z"/><path class="cls-15" d="M39.84,57.33l.26,0a2.56,2.56,0,0,1,0,.43,4.38,4.38,0,0,1-.77-.3.5.5,0,0,0-.29-.07c.07-.13,0-.26,0-.38a2.22,2.22,0,0,1-.08-.41l.69.36C39.69,57.08,39.7,57.24,39.84,57.33Z"/><path class="cls-6" d="M76.19,55a.57.57,0,0,1-.28.47c-.08,0-.17.06-.24,0a.2.2,0,0,1,0-.24.88.88,0,0,1,.37-.34C76.14,54.84,76.2,54.9,76.19,55Z"/><path class="cls-6" d="M58.41,55a.59.59,0,0,1-.27.47.2.2,0,0,1-.24,0,.2.2,0,0,1,0-.26.9.9,0,0,1,.38-.34C58.35,54.85,58.41,54.9,58.41,55Z"/><path class="cls-6" d="M53.87,55.53a.2.2,0,0,1,.11-.19l.4-.33s.1-.11.16,0,.1.17,0,.23A1.53,1.53,0,0,1,53.87,55.53Z"/><path class="cls-6" d="M73.33,55.48a.09.09,0,0,1,0-.08l.47-.39s.09-.09.14,0,.11.15,0,.21a1.53,1.53,0,0,1-.62.33A.06.06,0,0,1,73.33,55.48Z"/><path class="cls-16" d="M35.18,51.06a.29.29,0,0,1-.07.14,5.09,5.09,0,0,0-.64,1.53s0,.1-.05.12l-1.35-1.1c-.22-.18-.22-.19-.13-.46a5.43,5.43,0,0,1,.73-1.4,6.55,6.55,0,0,1,.88-1A7,7,0,0,1,35.68,48c.07.05,0,.09,0,.13a2.81,2.81,0,0,1-.59,1c-.11.12-.2.24-.31.36a.23.23,0,0,0-.06.1,2.93,2.93,0,0,0-.18.92.9.9,0,0,0,.34.54.1.1,0,0,0,.13,0A.19.19,0,0,1,35.18,51.06Z"/><path class="cls-16" d="M36.79,49.61c-.2.15-.43.27-.62.42a4.9,4.9,0,0,0-.85.87c0,.06-.07.12-.14.16,0-.15.08-.25.15-.36a2.75,2.75,0,0,1,.6-.75,2,2,0,0,1,.66-.39C36.66,49.55,36.74,49.51,36.79,49.61Z"/><path class="cls-2" d="M33.51,52.52c-.09,0-.09,0-.12-.09S33.5,52.46,33.51,52.52Z"/><path class="cls-16" d="M39.11,49l0,0Z"/><path class="cls-2" d="M11.23,33.23s0,0,.05,0,0,0,0,0Z"/><path class="cls-17" d="M74.59,57.82a.38.38,0,0,1,.18.39.8.8,0,0,1-.51.56c-.15,0-.21,0-.17-.2a1.45,1.45,0,0,1,.25-.45Z"/><path class="cls-17" d="M78.6,57.06c0-.13,0-.31.2-.4s.11-.13.17-.19a.15.15,0,0,1,.19,0,.18.18,0,0,1,.1.15.85.85,0,0,1-.53.66C78.64,57.26,78.6,57.2,78.6,57.06Z"/><path class="cls-2" d="M78.2,57v0h0Z"/><path class="cls-3" d="M37,57.23a.88.88,0,0,1-.37.07,4.19,4.19,0,0,1-1.77-.09,2.59,2.59,0,0,1-1.13-.6,2.86,2.86,0,0,0-.43-.75,3.61,3.61,0,0,1-.54-.95c0-.09-.08-.16,0-.26a.33.33,0,0,1,.22-.17,1.69,1.69,0,0,0,.38-.11c.12,0,.2,0,.27.13a9.83,9.83,0,0,1,.69,1.23.35.35,0,0,1,0,.2.16.16,0,0,1-.11-.08,3.06,3.06,0,0,1-.33-.6,1.59,1.59,0,0,0-.32-.49s-.07-.07-.12-.06a.28.28,0,0,0-.21.36,3.19,3.19,0,0,0,.69,1.1,2.9,2.9,0,0,0,.7.58s.06,0,.09,0,0-.05,0-.08a.81.81,0,0,0-.13-.27.8.8,0,0,1-.22-.38.17.17,0,0,1,.15.1,1.26,1.26,0,0,0,.33.33l0,0a.09.09,0,0,0,.09.09.19.19,0,0,0,.1.09.14.14,0,0,0,.14.1.3.3,0,0,0,.19.1.12.12,0,0,0,.06.09,3.08,3.08,0,0,0,.65.23.1.1,0,0,0,.1,0h.09c.06.05.13,0,.2,0Z"/><path class="cls-15" d="M34.89,56.46a1.26,1.26,0,0,1-.33-.33.17.17,0,0,0-.15-.1l-.05-.09a.35.35,0,0,0,0-.2,9.83,9.83,0,0,0-.69-1.23c-.07-.1-.15-.17-.27-.13a1.69,1.69,0,0,1-.38.11.33.33,0,0,0-.22.17c-.06.1,0,.17,0,.26a3.61,3.61,0,0,0,.54.95,2.86,2.86,0,0,1,.43.75,1.68,1.68,0,0,1-.57-.56.07.07,0,0,0,0-.06h0c0-.07,0-.14-.1-.14h0c0-.13,0-.26-.19-.28h0a.47.47,0,0,0-.24-.43h0l0,0a.27.27,0,0,1-.05-.14c.08-.07,0-.09,0-.1a.05.05,0,0,1,0,0,.75.75,0,0,0,0-.14.42.42,0,0,1,.18-.41,2.61,2.61,0,0,1,.75-.38c.09,0,.13,0,.16.08l.28.54c0,.08.07.18.18.2v0a2.47,2.47,0,0,0,.38.84h0v.09a.09.09,0,0,0,.09.1.52.52,0,0,1,.14.19.25.25,0,0,0,0,.15C34.8,56.24,34.9,56.33,34.89,56.46Z"/><path class="cls-7" d="M34,54.76v0c0-.13-.08-.22-.09-.33a1.9,1.9,0,0,0-.36-.85c0-.06-.1-.12-.18-.09a2.17,2.17,0,0,0-.4.19,2,2,0,0,0-.69.8.88.88,0,0,1-.09-.33s.05,0,.05-.07a.65.65,0,0,1,.38-.53,6.45,6.45,0,0,1,.7-.4.15.15,0,0,1,.22,0,6.34,6.34,0,0,1,.63,1,.35.35,0,0,1,0,.42c-.09.12,0,.23,0,.34s-.08,0-.09-.06A.1.1,0,0,0,34,54.76Z"/><path class="cls-14" d="M32.31,54.43a2,2,0,0,1,.69-.8,2.17,2.17,0,0,1,.4-.19c.08,0,.14,0,.18.09a1.9,1.9,0,0,1,.36.85c0,.11.13.2.09.33s-.14-.12-.18-.2L33.57,54c0-.07-.07-.12-.16-.08a2.61,2.61,0,0,0-.75.38.42.42,0,0,0-.18.41.75.75,0,0,1,0,.14A1,1,0,0,1,32.31,54.43Z"/><path class="cls-15" d="M37,57.23h-.47c-.07,0-.14,0-.2,0h.86C37.16,57.24,37.08,57.21,37,57.23Z"/><path class="cls-14" d="M32.61,55.14a.47.47,0,0,1,.24.43A.88.88,0,0,1,32.61,55.14Z"/><path class="cls-14" d="M32.84,55.56c.17,0,.18.15.19.28A.4.4,0,0,1,32.84,55.56Z"/><path class="cls-14" d="M33,55.85c.1,0,.1.07.1.14A.15.15,0,0,1,33,55.85Z"/><path class="cls-14" d="M32.47,54.85c.06,0,.12,0,0,.1A.11.11,0,0,1,32.47,54.85Z"/><path class="cls-14" d="M32.57,55.09l0,0A.06.06,0,0,1,32.57,55.09Z"/><path class="cls-14" d="M33.13,56a.07.07,0,0,1,0,.06Z"/><path class="cls-17" d="M69.54,57c0-.15,0-.31.2-.39s.1-.12.15-.18a.15.15,0,0,1,.21,0,.18.18,0,0,1,.09.2.84.84,0,0,1-.42.56s-.11.08-.17,0S69.54,57.12,69.54,57Z"/><path class="cls-17" d="M66.87,56.19c0,.19-.14.26-.29.41A.51.51,0,0,1,66.87,56.19Z"/><path class="cls-2" d="M69.09,56.95s0,0,.05,0a.05.05,0,0,1,0,.06Z"/><path class="cls-17" d="M72.69,57.07c0-.16,0-.33.2-.41s.1-.12.15-.18a.16.16,0,0,1,.21-.05.18.18,0,0,1,.09.2.8.8,0,0,1-.41.57s-.11.08-.17,0A.17.17,0,0,1,72.69,57.07Z"/><path class="cls-17" d="M71.26,56.18A3.07,3.07,0,0,1,71.76,55,2.31,2.31,0,0,1,71.26,56.18Z"/><path class="cls-17" d="M53.23,57.05c0-.16,0-.31.2-.39s.1-.12.15-.18a.15.15,0,0,1,.21,0,.17.17,0,0,1,.09.2.83.83,0,0,1-.42.57c-.05,0-.1.08-.17,0S53.23,57.12,53.23,57.05Z"/><path class="cls-17" d="M49.73,56.41a.18.18,0,0,1,.17.22.81.81,0,0,1-.48.6c-.1,0-.17,0-.16-.08s0-.36.18-.47.1-.12.15-.18A.18.18,0,0,1,49.73,56.41Z"/><path class="cls-2" d="M64.74,57.07s0,.08-.07.05,0-.08,0-.12Z"/><path class="cls-10" d="M42.57,50.23a.73.73,0,0,1,0,.14.15.15,0,0,1-.22.09,2.76,2.76,0,0,1-.93-1.07,1.38,1.38,0,0,1-.12-.57c0-.21.14-.3.32-.2a.7.7,0,0,1,.23.17A3.66,3.66,0,0,1,42.53,50a.64.64,0,0,1,0,.11,1.12,1.12,0,0,1,0,.14Z"/><path class="cls-7" d="M36.54,57.17h-.28l-.81-.28a.3.3,0,0,1-.19-.1c0-.1-.07-.1-.14-.1a.19.19,0,0,1-.1-.09.08.08,0,0,0-.09-.09l0,0c0-.13-.08-.23-.14-.33a.25.25,0,0,1,0-.15h.1l.23.3a2.27,2.27,0,0,0,1.41.86Z"/><path class="cls-14" d="M34,54.76a.1.1,0,0,1,.1.08s0,.06.09.06a.55.55,0,0,0,.08.28,2,2,0,0,1,.16.43h0A2.47,2.47,0,0,1,34,54.76Z"/><path class="cls-14" d="M34.55,55.8a.09.09,0,0,1-.09-.1A.09.09,0,0,1,34.55,55.8Z"/><path class="cls-12" d="M34.36,55.94l.05.09a.8.8,0,0,0,.22.38.81.81,0,0,1,.13.27s0,.06,0,.08-.06,0-.09,0a2.9,2.9,0,0,1-.7-.58,3.19,3.19,0,0,1-.69-1.1.28.28,0,0,1,.21-.36c.06,0,.09,0,.12.06a1.59,1.59,0,0,1,.32.49,3.06,3.06,0,0,0,.33.6A.16.16,0,0,0,34.36,55.94Z"/><path class="cls-15" d="M35.45,56.89l.81.28a.1.1,0,0,1-.1,0,3.08,3.08,0,0,1-.65-.23A.12.12,0,0,1,35.45,56.89Z"/><path class="cls-15" d="M35.12,56.7c.07,0,.14,0,.14.1A.14.14,0,0,1,35.12,56.7Z"/><path class="cls-15" d="M34.93,56.51a.08.08,0,0,1,.09.09A.09.09,0,0,1,34.93,56.51Z"/><path class="cls-18" d="M32.5,37.81s6.33-3.36,19.35.54c0,0,4.8,2.11,5.78,3.42,0,0-7.15-2.81-13.44-2.71,0,0,7.77,1.58,11.06,3.19,2.33,1.13,2.57,2.61,2.57,2.61s-5.57,2.86-9.66-.2C39.75,38.37,33.68,37.8,32.5,37.81Z"/></g></g></svg>