<?xml version="1.0" encoding="UTF-8" standalone="no"?>
<svg
   xmlns:dc="http://purl.org/dc/elements/1.1/"
   xmlns:cc="http://creativecommons.org/ns#"
   xmlns:rdf="http://www.w3.org/1999/02/22-rdf-syntax-ns#"
   xmlns:svg="http://www.w3.org/2000/svg"
   xmlns="http://www.w3.org/2000/svg"
   xmlns:sodipodi="http://sodipodi.sourceforge.net/DTD/sodipodi-0.dtd"
   xmlns:inkscape="http://www.inkscape.org/namespaces/inkscape"
   inkscape:version="1.0 (4035a4fb49, 2020-05-01)"
   sodipodi:docname="idea.svg"
   version="1.1"
   width="512px"
   viewBox="0 0 24 24"
   height="512px"
   enable-background="new 0 0 24 24"
   id="bold">
  <metadata
     id="metadata31">
    <rdf:RDF>
      <cc:Work
         rdf:about="">
        <dc:format>image/svg+xml</dc:format>
        <dc:type
           rdf:resource="http://purl.org/dc/dcmitype/StillImage" />
      </cc:Work>
    </rdf:RDF>
  </metadata>
  <defs
     id="defs29" />
  <sodipodi:namedview
     inkscape:current-layer="bold"
     inkscape:window-maximized="1"
     inkscape:window-y="-9"
     inkscape:window-x="-9"
     inkscape:cy="283.6498"
     inkscape:cx="327.61573"
     inkscape:zoom="0.859375"
     showgrid="false"
     id="namedview27"
     inkscape:window-height="1051"
     inkscape:window-width="1920"
     inkscape:pageshadow="2"
     inkscape:pageopacity="0"
     guidetolerance="10"
     gridtolerance="10"
     objecttolerance="10"
     borderopacity="1"
     bordercolor="#666666"
     pagecolor="#ffffff"
     inkscape:document-rotation="0" />
  <path
     d="m 12.163636,4.2092185 c -0.334177,0 -0.605394,-0.284962 -0.605394,-0.6360758 V 1.913409 c 0,-0.3511138 0.271217,-0.6360758 0.605394,-0.6360758 0.334177,0 0.605394,0.284962 0.605394,0.6360758 v 1.6597337 c 0,0.3511138 -0.271217,0.6360758 -0.605394,0.6360758 z"
     data-original="#000000"
     class="active-path"
     data-old_color="#000000"
     fill="#ffffff"
     id="path2"
     style="fill:none;stroke:#000000;stroke-width:0.827394" />
  <path
     d="m 17.467694,6.5177495 c -0.154981,0 -0.309962,-0.061911 -0.427812,-0.1865822 -0.236507,-0.2484936 -0.236507,-0.6513416 0,-0.8998352 l 1.117154,-1.1737719 c 0.236507,-0.2484936 0.619923,-0.2484936 0.856431,0 0.236507,0.2484936 0.236507,0.6513416 0,0.8998352 L 17.896313,6.3311673 C 17.777656,6.45499 17.622675,6.5177495 17.467694,6.5177495 Z"
     data-original="#000000"
     class="active-path"
     data-old_color="#000000"
     fill="#ffffff"
     id="path4"
     style="fill:none;stroke:#000000;stroke-width:0.827394" />
  <path
     d="m 21.244545,12.090622 h -1.579674 c -0.334178,0 -0.605394,-0.284962 -0.605394,-0.636076 0,-0.351114 0.271216,-0.636076 0.605394,-0.636076 h 1.579674 c 0.334178,0 0.605394,0.284962 0.605394,0.636076 0,0.351114 -0.271216,0.636076 -0.605394,0.636076 z"
     data-original="#000000"
     class="active-path"
     data-old_color="#000000"
     fill="#ffffff"
     id="path6"
     style="fill:none;stroke:#000000;stroke-width:0.827394" />
  <path
     d="m 18.584848,18.837265 c -0.154981,0 -0.309962,-0.06191 -0.427812,-0.186583 L 17.039882,17.47691 c -0.236507,-0.248492 -0.236507,-0.651341 0,-0.899835 0.236508,-0.248492 0.619924,-0.248492 0.856431,0 l 1.117154,1.173773 c 0.236507,0.248493 0.236507,0.651342 0,0.899834 -0.118657,0.124671 -0.273638,0.186583 -0.428619,0.186583 z"
     data-original="#000000"
     class="active-path"
     data-old_color="#000000"
     fill="#ffffff"
     id="path8"
     style="fill:none;stroke:#000000;stroke-width:0.827394" />
  <path
     d="m 5.7424245,18.837265 c -0.1549809,0 -0.3099617,-0.06191 -0.4278117,-0.186583 -0.2365073,-0.248492 -0.2365073,-0.651341 0,-0.899834 l 1.1171536,-1.173773 c 0.2365072,-0.248492 0.6199234,-0.248492 0.8564306,0 0.2365073,0.248494 0.2365073,0.651343 0,0.899835 l -1.1171536,1.173772 c -0.1186572,0.124671 -0.2736381,0.186583 -0.4286189,0.186583 z"
     data-original="#000000"
     class="active-path"
     data-old_color="#000000"
     fill="#ffffff"
     id="path10"
     style="fill:none;stroke:#000000;stroke-width:0.827394" />
  <path
     d="M 4.6624017,12.090622 H 3.082727 c -0.3341774,0 -0.6053939,-0.284962 -0.6053939,-0.636076 0,-0.351114 0.2712165,-0.636076 0.6053939,-0.636076 h 1.5796747 c 0.3341774,0 0.6053939,0.284962 0.6053939,0.636076 0,0.351114 -0.2712165,0.636076 -0.6053939,0.636076 z"
     data-original="#000000"
     class="active-path"
     data-old_color="#000000"
     fill="#ffffff"
     id="path12"
     style="fill:none;stroke:#000000;stroke-width:0.827394" />
  <path
     d="m 6.8595781,6.5177495 c -0.1549808,0 -0.3099617,-0.061911 -0.4278117,-0.1865822 L 5.3146128,5.1573954 c -0.2365073,-0.2484936 -0.2365073,-0.6513416 0,-0.8998352 0.2365072,-0.2484936 0.6199234,-0.2484936 0.8564306,0 L 7.288197,5.4313321 c 0.2365073,0.2484936 0.2365073,0.6513416 0,0.8998352 C 7.1687326,6.45499 7.014559,6.5177495 6.8595781,6.5177495 Z"
     data-original="#000000"
     class="active-path"
     data-old_color="#000000"
     fill="#ffffff"
     id="path14"
     style="fill:none;stroke:#000000;stroke-width:0.827394" />
  <path
     d="m 14.585212,19.087455 v 1.060126 c 0,0.814177 -0.637682,1.484177 -1.412586,1.484177 h -2.01798 c -0.678041,0 -1.4125855,-0.542785 -1.4125855,-1.730126 v -0.814177 z"
     data-original="#000000"
     class="active-path"
     data-old_color="#000000"
     fill="#ffffff"
     id="path16"
     style="fill:none;stroke:#000000;stroke-width:0.827394" />
  <path
     d="M 15.723352,6.840876 C 14.399558,5.7129016 12.656023,5.2718891 10.952848,5.6535345 8.8137898,6.1199901 7.0783271,7.9518883 6.6343716,10.199356 c -0.4520275,2.306835 0.3713082,4.596708 2.1309867,5.996074 0.4762432,0.373165 0.8071919,0.949874 0.9201987,1.619874 v 0.0085 c 0.016144,-0.0085 0.04036,-0.0085 0.056503,-0.0085 h 4.843152 c 0.01614,0 0.02422,0 0.04036,0.0085 v -0.0085 c 0.113006,-0.644558 0.476243,-1.238229 1.033205,-1.696202 1.364154,-1.136456 2.155203,-2.832658 2.155203,-4.664556 0,-1.7979746 -0.758761,-3.4772147 -2.090628,-4.61367 z m -0.532746,5.03772 c -0.330949,0 -0.605394,-0.288354 -0.605394,-0.636075 0,-1.2891143 -0.992846,-2.3322785 -2.219778,-2.3322785 -0.330949,0 -0.605394,-0.2883544 -0.605394,-0.6360758 0,-0.3477214 0.274445,-0.6360758 0.605394,-0.6360758 1.888829,0 3.430566,1.619873 3.430566,3.6044301 0,0.347721 -0.274446,0.636075 -0.605394,0.636075 z"
     data-original="#000000"
     class="active-path"
     data-old_color="#000000"
     fill="#ffffff"
     id="path18"
     style="fill:none;stroke:#000000;stroke-width:0.827394" />
  <path
     d="M 9.685557,17.815304 H 9.74206 c -0.016144,0 -0.04036,0 -0.056503,0.0085 z"
     data-original="#000000"
     class="active-path"
     data-old_color="#000000"
     fill="#ffffff"
     id="path20"
     style="fill:none;stroke:#000000;stroke-width:0.827394" />
  <path
     d="m 14.625571,17.815304 v 0.0085 c -0.01614,-0.0085 -0.02422,-0.0085 -0.04036,-0.0085 z"
     data-original="#000000"
     class="active-path"
     data-old_color="#000000"
     fill="#ffffff"
     id="path22"
     style="fill:none;stroke:#000000;stroke-width:0.827394" />
</svg>
